# xmcd
#
# Track frame offsets:
#	150
#	43424
#	64076
#	149105
#	173577
#	210746
#	224633
#	258130
#	292879
#	337542
#	341072
#
# Disc length: 4753 seconds
#
# Revision: 1
# Processed by: cddbd v1.5.2PL0 Copyright (c) Steve Scherf et al.
# Submitted via: audiograbber 1.82.00
#
DISCID=b1128f0b
DTITLE=Gabi Steiner - Von Mensch zu Mensch CD2
DYEAR=2006
DGENRE=
TTITLE0=Huhn oder Ei
TTITLE1=Erfolgreiches Zuhoeren
TTITLE2=Kontakte
TTITLE3=Informationsfluss
TTITLE4=Typische Fragen
TTITLE5=Passives Einkommen aus der Tiefe
TTITLE6=Trainingstreffen
TTITLE7=Filtern und sortieren
TTITLE8=Aufgabe eines Sponsors
TTITLE9=Sponsern und betreuen
TTITLE10=Schlusswort
EXTD=
EXTT0=
EXTT1=
EXTT2=
EXTT3=
EXTT4=
EXTT5=
EXTT6=
EXTT7=
EXTT8=
EXTT9=
EXTT10=
PLAYORDER=
